# xmcd
#
# Track frame offsets:
# 150
# 15965
# 31457
# 46848
# 61530
# 79140
# 92592
# 107988
# 122251
# 137586
# 150577
# 164872
# 179411
# 193007
#
# Disc length: 2776 seconds
#
#
# Revision: 0
# Processed by: cddbd v1.5.2PL0 Copyright (c) Steve Scherf et al.
# Submitted via: FreeRIP 2.96 
#
DISCID=a90ad60e
DTITLE=Batidão Sertanejo - CD 1 - Batidão Sertanejo - CD 1
DYEAR=2009
DGENRE=Sertanejo
TTITLE0=Paga Pau (Ao Vivo) Fernando and Sorocaba
TTITLE1=Você De Volta (Ao Vivo) Maria Cecília and Rodolfo
TTITLE2=Pega Fogo, Cabaré (Ao Vivo) João Neto and Frederico
TTITLE3=É Problema Meu (Ao Vivo) Tchê Garotos
TTITLE4=Nossa História (Ao Vivo) Don and Juan
TTITLE5=Pistoleira - João Marcio and Fabiano
TTITLE6=Não Vou Tirar Você Do Coração (Ao Vivo) Banda Nechivile
TTITLE7=Cola Em Mim (Ao Vivo) Ricardo E Eduardo
TTITLE8=A Chapa Vai Esquentar - Rud and Robson
TTITLE9=Dou A Vida Por Um Beijo (Ao Vivo) Alan and Alex
TTITLE10=Aqui É O Seu Lugar (Ao Vivo) Alvaro and Daniel
TTITLE11=Amar Você - Léo and Gabriel
TTITLE12=Tentação Cruel (Ao Vivo) Marcos and Belutti
TTITLE13=Atende O Telefone - Ulisses and Moisés
EXTD=Ano 2009 - M.P.A.
EXTT0=
EXTT1=
EXTT2=
EXTT3=
EXTT4=
EXTT5=
EXTT6=
EXTT7=
EXTT8=
EXTT9=
EXTT10=
EXTT11=
EXTT12=
EXTT13=
PLAYORDER=
